<?xml version="1.0" encoding="UTF-8"?>
<!DOCTYPE svg PUBLIC "-//W3C//DTD SVG 1.1//EN" "http://www.w3.org/Graphics/SVG/1.1/DTD/svg11.dtd">
<svg xmlns="http://www.w3.org/2000/svg" version="1.1" width="100px" height="100px" style="shape-rendering:geometricPrecision; text-rendering:geometricPrecision; image-rendering:optimizeQuality; fill-rule:evenodd; clip-rule:evenodd" xmlns:xlink="http://www.w3.org/1999/xlink">
<g><path style="opacity:0.991" fill="#de2219" d="M 41.5,-0.5 C 46.8333,-0.5 52.1667,-0.5 57.5,-0.5C 59.1667,0.166667 60.8333,0.833333 62.5,1.5C 60.8333,1.5 59.1667,1.5 57.5,1.5C 57.5,14.8333 57.5,28.1667 57.5,41.5C 70.8333,41.5 84.1667,41.5 97.5,41.5C 97.8333,41.5 98.1667,41.5 98.5,41.5C 98.8333,41.5 99.1667,41.5 99.5,41.5C 99.5,46.8333 99.5,52.1667 99.5,57.5C 98.8333,59.1667 98.1667,60.8333 97.5,62.5C 97.5,60.8333 97.5,59.1667 97.5,57.5C 84.1667,57.5 70.8333,57.5 57.5,57.5C 57.5,70.8333 57.5,84.1667 57.5,97.5C 61.8805,96.7066 66.2138,95.7066 70.5,94.5C 66.3745,96.7631 62.0412,98.4298 57.5,99.5C 52.1667,99.5 46.8333,99.5 41.5,99.5C 38.754,98.7487 36.0873,97.7487 33.5,96.5C 36.1667,96.8333 38.8333,97.1667 41.5,97.5C 41.5,84.1667 41.5,70.8333 41.5,57.5C 28.1667,57.5 14.8333,57.5 1.5,57.5C 2.29343,61.8805 3.29343,66.2138 4.5,70.5C 2.23691,66.3745 0.570243,62.0412 -0.5,57.5C -0.5,52.1667 -0.5,46.8333 -0.5,41.5C 0.251327,38.754 1.25133,36.0873 2.5,33.5C 2.4249,36.2062 2.09157,38.8728 1.5,41.5C 14.8333,41.5 28.1667,41.5 41.5,41.5C 41.5,28.1667 41.5,14.8333 41.5,1.5C 38.8333,1.83333 36.1667,2.16667 33.5,2.5C 36.0873,1.25133 38.754,0.251327 41.5,-0.5 Z"/></g>
<g><path style="opacity:1" fill="#fefbfb" d="M 2.5,33.5 C 4.21321,32.3646 4.87988,30.698 4.5,28.5C 4.6596,26.847 5.32627,25.5137 6.5,24.5C 7.90632,24.0269 8.57298,23.0269 8.5,21.5C 10.2624,20.7377 11.2624,19.4044 11.5,17.5C 13.8333,15.8333 15.8333,13.8333 17.5,11.5C 19.4044,11.2624 20.7377,10.2624 21.5,8.5C 23.0269,8.57298 24.0269,7.90632 24.5,6.5C 25.5137,5.32627 26.847,4.6596 28.5,4.5C 30.698,4.87988 32.3646,4.21321 33.5,2.5C 36.1667,2.16667 38.8333,1.83333 41.5,1.5C 41.5,14.8333 41.5,28.1667 41.5,41.5C 28.1667,41.5 14.8333,41.5 1.5,41.5C 2.09157,38.8728 2.4249,36.2062 2.5,33.5 Z"/></g>
<g><path style="opacity:1" fill="#fffafa" d="M 62.5,1.5 C 64.7916,3.26708 67.4582,4.26708 70.5,4.5C 72.153,4.6596 73.4863,5.32627 74.5,6.5C 74.9731,7.90632 75.9731,8.57298 77.5,8.5C 78.2623,10.2624 79.5956,11.2624 81.5,11.5C 83.1667,13.8333 85.1667,15.8333 87.5,17.5C 87.7376,19.4044 88.7376,20.7377 90.5,21.5C 90.427,23.0269 91.0937,24.0269 92.5,24.5C 93.6737,25.5137 94.3404,26.847 94.5,28.5C 95.6992,32.7694 96.6992,37.1028 97.5,41.5C 84.1667,41.5 70.8333,41.5 57.5,41.5C 57.5,28.1667 57.5,14.8333 57.5,1.5C 59.1667,1.5 60.8333,1.5 62.5,1.5 Z"/></g>
<g><path style="opacity:1" fill="#f28373" d="M 33.5,2.5 C 32.3646,4.21321 30.698,4.87988 28.5,4.5C 29.7804,3.06873 31.4471,2.40206 33.5,2.5 Z"/></g>
<g><path style="opacity:0.667" fill="#e44d3e" d="M 62.5,1.5 C 65.5418,1.73292 68.2084,2.73292 70.5,4.5C 67.4582,4.26708 64.7916,3.26708 62.5,1.5 Z"/></g>
<g><path style="opacity:0.071" fill="#e3382e" d="M 74.5,6.5 C 76.0269,6.42702 77.0269,7.09368 77.5,8.5C 75.9731,8.57298 74.9731,7.90632 74.5,6.5 Z"/></g>
<g><path style="opacity:0.91" fill="#e34e42" d="M 24.5,6.5 C 24.0269,7.90632 23.0269,8.57298 21.5,8.5C 21.9731,7.09368 22.9731,6.42702 24.5,6.5 Z"/></g>
<g><path style="opacity:0.063" fill="#e34334" d="M 77.5,8.5 C 79.4044,8.73758 80.7377,9.73758 81.5,11.5C 79.5956,11.2624 78.2623,10.2624 77.5,8.5 Z"/></g>
<g><path style="opacity:0.867" fill="#e55346" d="M 21.5,8.5 C 20.7377,10.2624 19.4044,11.2624 17.5,11.5C 18.2623,9.73758 19.5956,8.73758 21.5,8.5 Z"/></g>
<g><path style="opacity:0.624" fill="#e03022" d="M 17.5,11.5 C 15.8333,13.8333 13.8333,15.8333 11.5,17.5C 12.5,14.5 14.5,12.5 17.5,11.5 Z"/></g>
<g><path style="opacity:0.635" fill="#ea3021" d="M 81.5,11.5 C 84.5,12.5 86.5,14.5 87.5,17.5C 85.1667,15.8333 83.1667,13.8333 81.5,11.5 Z"/></g>
<g><path style="opacity:1" fill="#de271d" d="M 21.5,17.5 C 22.8333,17.5 24.1667,17.5 25.5,17.5C 25.5,19.1667 25.5,20.8333 25.5,22.5C 26.791,22.7373 27.791,22.404 28.5,21.5C 29.1667,21.5 29.8333,21.5 30.5,21.5C 30.5,22.8333 30.5,24.1667 30.5,25.5C 28.8333,25.5 27.1667,25.5 25.5,25.5C 25.5,27.1667 25.5,28.8333 25.5,30.5C 24.1667,30.5 22.8333,30.5 21.5,30.5C 21.5,29.1667 21.5,27.8333 21.5,26.5C 19.8333,26.5 18.1667,26.5 16.5,26.5C 16.5,24.8333 16.5,23.1667 16.5,21.5C 18.1667,21.5 19.8333,21.5 21.5,21.5C 21.5,20.1667 21.5,18.8333 21.5,17.5 Z"/></g>
<g><path style="opacity:1" fill="#e23a2c" d="M 72.5,16.5 C 74.1667,16.5 75.8333,16.5 77.5,16.5C 77.5,18.1667 77.5,19.8333 77.5,21.5C 79.1667,21.5 80.8333,21.5 82.5,21.5C 82.5,23.1667 82.5,24.8333 82.5,26.5C 80.8333,26.5 79.1667,26.5 77.5,26.5C 77.5,28.1667 77.5,29.8333 77.5,31.5C 75.8333,31.5 74.1667,31.5 72.5,31.5C 72.5,29.8333 72.5,28.1667 72.5,26.5C 71.1667,26.5 69.8333,26.5 68.5,26.5C 68.5,24.8333 68.5,23.1667 68.5,21.5C 69.8333,21.5 71.1667,21.5 72.5,21.5C 72.5,19.8333 72.5,18.1667 72.5,16.5 Z"/></g>
<g><path style="opacity:0.867" fill="#e55044" d="M 11.5,17.5 C 11.2624,19.4044 10.2624,20.7377 8.5,21.5C 8.73758,19.5956 9.73758,18.2623 11.5,17.5 Z"/></g>
<g><path style="opacity:0.871" fill="#e55447" d="M 87.5,17.5 C 89.2624,18.2623 90.2624,19.5956 90.5,21.5C 88.7376,20.7377 87.7376,19.4044 87.5,17.5 Z"/></g>
<g><path style="opacity:1" fill="#eb726b" d="M 21.5,17.5 C 22.9187,16.5489 24.5853,16.2155 26.5,16.5C 26.0773,18.7812 26.744,20.4479 28.5,21.5C 27.791,22.404 26.791,22.7373 25.5,22.5C 25.5,20.8333 25.5,19.1667 25.5,17.5C 24.1667,17.5 22.8333,17.5 21.5,17.5 Z"/></g>
<g><path style="opacity:0.596" fill="#e03e33" d="M 8.5,21.5 C 8.57298,23.0269 7.90632,24.0269 6.5,24.5C 6.42702,22.9731 7.09368,21.9731 8.5,21.5 Z"/></g>
<g><path style="opacity:0.608" fill="#e04036" d="M 90.5,21.5 C 91.9063,21.9731 92.573,22.9731 92.5,24.5C 91.0937,24.0269 90.427,23.0269 90.5,21.5 Z"/></g>
<g><path style="opacity:1" fill="#ea695f" d="M 30.5,21.5 C 31.4511,22.9187 31.7845,24.5853 31.5,26.5C 29.8333,26.5 28.1667,26.5 26.5,26.5C 26.5,28.1667 26.5,29.8333 26.5,31.5C 24.5853,31.7845 22.9187,31.4511 21.5,30.5C 22.8333,30.5 24.1667,30.5 25.5,30.5C 25.5,28.8333 25.5,27.1667 25.5,25.5C 27.1667,25.5 28.8333,25.5 30.5,25.5C 30.5,24.1667 30.5,22.8333 30.5,21.5 Z"/></g>
<g><path style="opacity:1" fill="#f27d6c" d="M 4.5,28.5 C 4.87988,30.698 4.21321,32.3646 2.5,33.5C 2.40206,31.4471 3.06873,29.7804 4.5,28.5 Z"/></g>
<g><path style="opacity:1" fill="#ec6d5e" d="M 94.5,28.5 C 97.0129,32.3778 98.3462,36.7112 98.5,41.5C 98.1667,41.5 97.8333,41.5 97.5,41.5C 96.6992,37.1028 95.6992,32.7694 94.5,28.5 Z"/></g>
<g><path style="opacity:1" fill="#fffbfb" d="M 33.5,96.5 C 32.3646,94.7868 30.698,94.1201 28.5,94.5C 26.847,94.3404 25.5137,93.6737 24.5,92.5C 24.0269,91.0937 23.0269,90.427 21.5,90.5C 20.7377,88.7376 19.4044,87.7376 17.5,87.5C 15.8333,85.1667 13.8333,83.1667 11.5,81.5C 11.2624,79.5956 10.2624,78.2623 8.5,77.5C 8.57298,75.9731 7.90632,74.9731 6.5,74.5C 5.32627,73.4863 4.6596,72.153 4.5,70.5C 3.29343,66.2138 2.29343,61.8805 1.5,57.5C 14.8333,57.5 28.1667,57.5 41.5,57.5C 41.5,70.8333 41.5,84.1667 41.5,97.5C 38.8333,97.1667 36.1667,96.8333 33.5,96.5 Z"/></g>
<g><path style="opacity:1" fill="#fffaf9" d="M 97.5,62.5 C 95.7329,64.7916 94.7329,67.4582 94.5,70.5C 94.3404,72.153 93.6737,73.4863 92.5,74.5C 91.0937,74.9731 90.427,75.9731 90.5,77.5C 89.0937,77.9731 88.427,78.9731 88.5,80.5C 88.5,81.1667 88.1667,81.5 87.5,81.5C 85.1667,83.1667 83.1667,85.1667 81.5,87.5C 81.5,88.1667 81.1667,88.5 80.5,88.5C 78.9731,88.427 77.9731,89.0937 77.5,90.5C 75.9731,90.427 74.9731,91.0937 74.5,92.5C 73.4863,93.6737 72.153,94.3404 70.5,94.5C 66.2138,95.7066 61.8805,96.7066 57.5,97.5C 57.5,84.1667 57.5,70.8333 57.5,57.5C 70.8333,57.5 84.1667,57.5 97.5,57.5C 97.5,59.1667 97.5,60.8333 97.5,62.5 Z"/></g>
<g><path style="opacity:0.678" fill="#e54e41" d="M 97.5,62.5 C 97.2671,65.5418 96.2671,68.2084 94.5,70.5C 94.7329,67.4582 95.7329,64.7916 97.5,62.5 Z"/></g>
<g><path style="opacity:1" fill="#de271d" d="M 21.5,69.5 C 22.8333,69.5 24.1667,69.5 25.5,69.5C 25.5,71.1667 25.5,72.8333 25.5,74.5C 26.791,74.7373 27.791,74.404 28.5,73.5C 29.1667,73.5 29.8333,73.5 30.5,73.5C 30.5,74.8333 30.5,76.1667 30.5,77.5C 28.8333,77.5 27.1667,77.5 25.5,77.5C 25.5,79.1667 25.5,80.8333 25.5,82.5C 24.1667,82.5 22.8333,82.5 21.5,82.5C 21.5,81.1667 21.5,79.8333 21.5,78.5C 19.8333,78.5 18.1667,78.5 16.5,78.5C 16.5,76.8333 16.5,75.1667 16.5,73.5C 18.1667,73.5 19.8333,73.5 21.5,73.5C 21.5,72.1667 21.5,70.8333 21.5,69.5 Z"/></g>
<g><path style="opacity:1" fill="#de271d" d="M 77.5,69.5 C 77.5,70.8333 77.5,72.1667 77.5,73.5C 79.1667,73.5 80.8333,73.5 82.5,73.5C 82.5,75.1667 82.5,76.8333 82.5,78.5C 80.8333,78.5 79.1667,78.5 77.5,78.5C 77.5,79.8333 77.5,81.1667 77.5,82.5C 76.1667,82.5 74.8333,82.5 73.5,82.5C 73.5,80.8333 73.5,79.1667 73.5,77.5C 71.901,77.2322 70.5676,77.5655 69.5,78.5C 68.1667,76.8333 68.1667,75.1667 69.5,73.5C 70.5676,74.4345 71.901,74.7678 73.5,74.5C 73.5,72.8333 73.5,71.1667 73.5,69.5C 74.8333,69.5 76.1667,69.5 77.5,69.5 Z"/></g>
<g><path style="opacity:1" fill="#eb756e" d="M 21.5,69.5 C 22.9187,68.5489 24.5853,68.2155 26.5,68.5C 26.0773,70.7812 26.744,72.4479 28.5,73.5C 27.791,74.404 26.791,74.7373 25.5,74.5C 25.5,72.8333 25.5,71.1667 25.5,69.5C 24.1667,69.5 22.8333,69.5 21.5,69.5 Z"/></g>
<g><path style="opacity:1" fill="#eb716a" d="M 77.5,69.5 C 76.1667,69.5 74.8333,69.5 73.5,69.5C 73.5,71.1667 73.5,72.8333 73.5,74.5C 71.901,74.7678 70.5676,74.4345 69.5,73.5C 70.5,73.5 71.5,73.5 72.5,73.5C 72.5,71.8333 72.5,70.1667 72.5,68.5C 74.4147,68.2155 76.0813,68.5489 77.5,69.5 Z"/></g>
<g><path style="opacity:0.071" fill="#e33a2f" d="M 6.5,74.5 C 7.90632,74.9731 8.57298,75.9731 8.5,77.5C 7.09368,77.0269 6.42702,76.0269 6.5,74.5 Z"/></g>
<g><path style="opacity:0.075" fill="#e4382e" d="M 92.5,74.5 C 92.573,76.0269 91.9063,77.0269 90.5,77.5C 90.427,75.9731 91.0937,74.9731 92.5,74.5 Z"/></g>
<g><path style="opacity:0.059" fill="#e34535" d="M 8.5,77.5 C 10.2624,78.2623 11.2624,79.5956 11.5,81.5C 9.73758,80.7377 8.73758,79.4044 8.5,77.5 Z"/></g>
<g><path style="opacity:0.063" fill="#e1372e" d="M 90.5,77.5 C 90.573,79.0269 89.9063,80.0269 88.5,80.5C 88.427,78.9731 89.0937,77.9731 90.5,77.5 Z"/></g>
<g><path style="opacity:1" fill="#eb6e65" d="M 30.5,73.5 C 31.4511,74.9187 31.7845,76.5853 31.5,78.5C 29.8333,78.5 28.1667,78.5 26.5,78.5C 26.5,80.1667 26.5,81.8333 26.5,83.5C 24.5853,83.7845 22.9187,83.4511 21.5,82.5C 22.8333,82.5 24.1667,82.5 25.5,82.5C 25.5,80.8333 25.5,79.1667 25.5,77.5C 27.1667,77.5 28.8333,77.5 30.5,77.5C 30.5,76.1667 30.5,74.8333 30.5,73.5 Z"/></g>
<g><path style="opacity:1" fill="#ea7069" d="M 69.5,78.5 C 70.5676,77.5655 71.901,77.2322 73.5,77.5C 73.5,79.1667 73.5,80.8333 73.5,82.5C 74.8333,82.5 76.1667,82.5 77.5,82.5C 76.0813,83.4511 74.4147,83.7845 72.5,83.5C 72.5,81.8333 72.5,80.1667 72.5,78.5C 71.5,78.5 70.5,78.5 69.5,78.5 Z"/></g>
<g><path style="opacity:0.631" fill="#ea3021" d="M 11.5,81.5 C 13.8333,83.1667 15.8333,85.1667 17.5,87.5C 14.5,86.5 12.5,84.5 11.5,81.5 Z"/></g>
<g><path style="opacity:0.02" fill="#dd301b" d="M 87.5,81.5 C 86.5,84.5 84.5,86.5 81.5,87.5C 83.1667,85.1667 85.1667,83.1667 87.5,81.5 Z"/></g>
<g><path style="opacity:0.871" fill="#e55144" d="M 17.5,87.5 C 19.4044,87.7376 20.7377,88.7376 21.5,90.5C 19.5956,90.2624 18.2623,89.2624 17.5,87.5 Z"/></g>
<g><path style="opacity:0.063" fill="#e1382f" d="M 80.5,88.5 C 80.0269,89.9063 79.0269,90.573 77.5,90.5C 77.9731,89.0937 78.9731,88.427 80.5,88.5 Z"/></g>
<g><path style="opacity:0.608" fill="#e03d33" d="M 21.5,90.5 C 23.0269,90.427 24.0269,91.0937 24.5,92.5C 22.9731,92.573 21.9731,91.9063 21.5,90.5 Z"/></g>
<g><path style="opacity:0.075" fill="#e43e30" d="M 77.5,90.5 C 77.0269,91.9063 76.0269,92.573 74.5,92.5C 74.9731,91.0937 75.9731,90.427 77.5,90.5 Z"/></g>
<g><path style="opacity:1" fill="#f27e6d" d="M 28.5,94.5 C 30.698,94.1201 32.3646,94.7868 33.5,96.5C 31.4471,96.5979 29.7804,95.9313 28.5,94.5 Z"/></g>
</svg>
